:SAMPLES-PER-SECOND 30
:FRAME-RANGE 1-3535
:FULLY-SPECIFIED
:DEGREES
442
root  17.0526 30.9666 -69.8277 170.434 -67.2368 -174.878
RightUpLeg  -40.125 9.0214 -22.6852
RightLeg  74.5293 3.49805 13.2621
RightFoot  -20.5031 1.54093 20.7707
RightToes  5.38503e-012 1.26228e-014 -6.01869e-014
Spine  11.8878 -5.91835 -16.325
Spine1  1.56732 -10.0038 10.7768
HEad  19.8322 24.3968 -2.79416
LeftShoulder1  3.08136 -11.9329 -13.4806
LeftArm  44.0476 11.0556 -44.1441
LeftForeArm  5.97033 -21.1578 -5.82298
LeftHand  -0.0221493 5.31428 16.5714
RightShoulder  0.0409016 -3.18728 20.2833
RightArm  -34.7109 27.3551 23.4373
RightForeArm  -176.656 63.7726 161.357
RightHand  1.34833 -10.0161 -32.799
LeftUpLeg  -40.0146 13.9002 13.9054
LeftLeg  75.9744 -2.74883 -11.3557
LeftFoot  -27.2833 -0.181209 -2.46543
LeftToes  8.9788e-011 3.29689e-010 2.1201e-011
443
root  16.6834 30.3467 -70.3061 178.004 -64.4291 175.374
RightUpLeg  -38.3711 8.59855 -26.0655
RightLeg  75.0076 3.89657 15.3667
RightFoot  -28 2.58687 18.8245
RightToes  5.38503e-012 1.26228e-014 -6.01869e-014
Spine  11.1585 -3.9366 -12.4789
Spine1  0.805182 -6.03094 2.51419
HEad  22.607 20.1275 -2.85985
LeftShoulder1  2.78653 -9.10808 -15.9351
LeftArm  37.508 11.4557 -39.6346
LeftForeArm  16.6826 -33.0305 -6.36075
LeftHand  -0.162296 4.34836 17.103
RightShoulder  0.342568 -1.5777 12.2381
RightArm  -47.2883 27.2808 14.3501
RightForeArm  179.842 65.2516 159.766
RightHand  1.5068 -10.8188 -31.3484
LeftUpLeg  -37.2657 15.4116 11.7475
LeftLeg  78.1601 -2.19493 -10.8222
LeftFoot  -29.9351 -0.442488 -3.80321
LeftToes  8.9788e-011 3.29689e-010 2.1201e-011
444
root  16.3332 30.2199 -70.683 -178.481 -61.0807 170.133
RightUpLeg  -36.7086 8.96811 -28.021
RightLeg  73.7908 4.55411 16.4778
RightFoot  -32.5464 2.80602 16.0885
RightToes  5.38503e-012 1.26228e-014 -6.01869e-014
Spine  10.8385 -2.20814 -6.91993
Spine1  0.230263 -2.31696 -5.61239
HEad  24.8614 16.705 -3.3986
LeftShoulder1  2.29737 -5.89553 -18.6765
LeftArm  32.3608 12.5075 -34.9215
LeftForeArm  28.8049 -45.9067 -9.51297
LeftHand  -0.168686 4.26964 16.5376
RightShoulder  0.514921 0.77654 4.58033
RightArm  -55.5426 26.2006 7.17167
RightForeArm  169.559 71.4073 151.247
RightHand  1.55454 -11.0313 -31.1364
LeftUpLeg  -33.8463 16.1477 10.4447
LeftLeg  78.3232 -1.87452 -9.184
LeftFoot  -31.4087 -0.854819 -5.89729
LeftToes  8.9788e-011 3.29689e-010 2.1201e-011
445
root  16.0817 30.5368 -71.0255 -175.949 -57.6645 166.551
RightUpLeg  -36.9784 10.9717 -29.9788
RightLeg  73.0975 5.23992 18.0768
RightFoot  -32.4972 2.60232 15.051
RightToes  5.38503e-012 1.26228e-014 -6.01869e-014
Spine  10.3427 -0.370479 -1.8156
Spine1  0.180992 1.35074 -12.8133
HEad  27.41 13.0483 -3.56575
LeftShoulder1  1.57613 -2.44087 -21.3055
LeftArm  29.2366 13.4454 -31.4716
LeftForeArm  39.6904 -57.784 -14.3181
LeftHand  0.0417466 5.75867 16.8807
RightShoulder  0.450584 2.35631 -0.617386
RightArm  -59.7038 26.0255 3.34654
RightForeArm  139.078 79.0931 121.911
RightHand  1.37459 -10.4513 -30.7401
LeftUpLeg  -30.3323 16.2057 8.86658
LeftLeg  76.1742 -1.68361 -6.58997
LeftFoot  -31.7733 -1.34101 -8.49137
LeftToes  8.9788e-011 3.29689e-010 2.1201e-011
446
root  15.9461 31.3844 -71.3234 -173.84 -53.7518 163.602
RightUpLeg  -36.7916 14.3608 -31.6023
RightLeg  69.6381 6.16755 17.2478
RightFoot  -30.817 2.43034 15.31
RightToes  5.38503e-012 1.26228e-014 -6.01869e-014
Spine  9.93741 1.63616 2.00598
Spine1  0.340968 4.99392 -19.1564
HEad  30.3607 9.14298 -2.69344
LeftShoulder1  0.660293 1.09031 -23.8083
LeftArm  26.7848 15.2879 -28.6206
LeftForeArm  52.931 -68.9719 -23.5721
LeftHand  0.0817211 6.1008 15.6512
RightShoulder  0.433029 3.78547 -2.6724
RightArm  -61.3666 24.3369 3.02141
RightForeArm  80.2455 79.4855 60.9311
RightHand  1.11955 -10.2195 -26.5878
LeftUpLeg  -25.7843 16.4265 6.59306
LeftLeg  70.771 -1.24341 -3.01628
LeftFoot  -31.1117 -1.699 -10.7986
LeftToes  8.9788e-011 3.29689e-010 2.1201e-011
447
root  15.8931 32.538 -71.5795 -171.934 -49.8743 160.939
RightUpLeg  -35.5802 17.9893 -33.2104
RightLeg  63.9874 7.29956 15.4022
RightFoot  -28.749 2.23256 15.7782
RightToes  5.38503e-012 1.26228e-014 -6.01869e-014
Spine  9.50227 3.37917 3.20788
Spine1  0.663799 7.70028 -22.7363
HEad  32.9897 6.6441 -1.83725
LeftShoulder1  -0.369067 4.45042 -26.2107
LeftArm  24.1947 18.9832 -26.2001
LeftForeArm  81.8626 -78.7937 -50.4154
LeftHand  0.115745 6.37017 15.4771
RightShoulder  0.498857 4.66603 -2.4676
RightArm  -59.6063 22.6094 4.54204
RightForeArm  50.0701 72.8239 31.8615
RightHand  0.957872 -9.37136 -27.5466
LeftUpLeg  -21.1561 16.5807 3.89538
LeftLeg  63.6193 -0.169032 0.345209
LeftFoot  -28.4544 -1.81389 -13.1428
LeftToes  8.9788e-011 3.29689e-010 2.1201e-011
448
root  15.9653 33.6876 -71.9113 -170.693 -49.2898 160.216
RightUpLeg  -32.8866 17.0534 -32.5879
RightLeg  58.2522 8.83112 14.6334
RightFoot  -26.5804 1.91394 15.5779
RightToes  5.38503e-012 1.26228e-014 -6.01869e-014
Spine  7.65599 4.43049 2.0249
Spine1  1.57282 8.58853 -21.6248
HEad  35.9531 4.70485 -1.80319
LeftShoulder1  -1.158 6.74893 -27.6364
LeftArm  22.1338 23.7821 -26.3372
LeftForeArm  142.693 -80.953 -108.821
LeftHand  0.11041 6.3739 14.8865
RightShoulder  0.592571 4.63423 -1.08608
RightArm  -56.2425 21.1089 4.96026
RightForeArm  42.4033 64.9959 19.9639
RightHand  0.562559 -7.5849 -29.254
LeftUpLeg  -18.6832 16.6884 3.25835
LeftLeg  57.2302 0.0713958 0.710423
LeftFoot  -24.2598 -1.48489 -14.3347
LeftToes  8.9788e-011 3.29689e-010 2.1201e-011
449
root  16.1164 35.1316 -72.0063 -171.707 -52.4209 163.195
RightUpLeg  -27.6907 13.8115 -28.6113
RightLeg  49.489 10.0833 12.0968
RightFoot  -22.2429 1.38388 15.9985
RightToes  5.38503e-012 1.26228e-014 -6.01869e-014
Spine  5.35729 3.88814 3.03132
Spine1  2.67834 7.54409 -17.8406
HEad  38.4996 3.41061 -1.03973
LeftShoulder1  -1.54162 7.94685 -27.1871
LeftArm  20.3459 28.0318 -26.9991
LeftForeArm  -178.268 -75.2347 -145.743
LeftHand  0.109479 6.42306 14.1943
RightShoulder  0.654637 3.92678 0.708481
RightArm  -50.4632 16.9603 6.51112
RightForeArm  39.4219 57.2923 14.0394
RightHand  0.161881 -6.05075 -28.3461
LeftUpLeg  -17.5059 16.5294 5.52369
LeftLeg  50.5039 -1.56398 -1.54527
LeftFoot  -19.21 -0.816887 -13.494
LeftToes  8.9788e-011 3.29689e-010 2.1201e-011
